<?xml version="1.0" encoding="utf-8"?>
<!-- Generator: Adobe Illustrator 23.0.1, SVG Export Plug-In . SVG Version: 6.00 Build 0)  -->
<svg version="1.1" xmlns="http://www.w3.org/2000/svg" xmlns:xlink="http://www.w3.org/1999/xlink" x="0px" y="0px"
	 viewBox="0 0 800 800" style="enable-background:new 0 0 800 800;" xml:space="preserve">
<style type="text/css">
	.st0{display:none;}
	.st1{display:inline;fill:none;stroke:#000000;stroke-miterlimit:10;}
	.st2{fill:#FFFFFF;stroke:#000000;stroke-width:30;stroke-miterlimit:10;}
	.st3{fill:none;stroke:#000000;stroke-width:26;stroke-miterlimit:10;}
</style>
<g id="fond" class="st0">
	<rect y="1.48" class="st1" width="798.52" height="798.52"/>
</g>
<g id="Calque_1">
	<circle class="st2" cx="400" cy="400" r="300"/>
	<rect x="355.52" y="424.02" width="90" height="45"/>
	<rect x="211.75" y="434.69" width="73.35" height="36.68"/>
	<rect x="515.75" y="434.69" width="73.35" height="36.68"/>
	<path class="st3" d="M316.26,499.08c0,0-48.4,158.85-69.55,158.85c-21.11,0-66.96-162.07-66.96-162.07V196.31"/>
	<path class="st3" d="M483.74,111.85v387.23c0,0-59.33,200.92-85.28,200.92c-25.9,0-82.21-200.92-82.21-200.92l0-387.24"/>
	<path class="st3" d="M620.25,196.82v299.05c0,0-48.36,163.76-69.5,163.76c-21.11,0-67.01-160.54-67.01-160.54"/>
</g>
</svg>
